<mxfile host="Electron" modified="2023-12-21T15:38:37.609Z" agent="Mozilla/5.0 (Windows NT 10.0; Win64; x64) AppleWebKit/537.36 (KHTML, like Gecko) draw.io/22.1.2 Chrome/114.0.5735.289 Electron/25.9.4 Safari/537.36" etag="_hUB5x8vYyxSE9LSq0Dz" version="22.1.2" type="device">
  <diagram name="Page-1" id="eA_269fhGGT-t8miq8zX">
    <mxGraphModel dx="1195" dy="737" grid="1" gridSize="10" guides="1" tooltips="1" connect="1" arrows="1" fold="1" page="1" pageScale="1" pageWidth="827" pageHeight="583" math="0" shadow="0">
      <root>
        <mxCell id="0" />
        <mxCell id="1" parent="0" />
        <mxCell id="J5BWZxYgXUkZilHQ0DRr-7" value="" style="rounded=1;whiteSpace=wrap;html=1;fillColor=#d5e8d4;strokeColor=#82b366;" vertex="1" parent="1">
          <mxGeometry x="180" y="66" width="380" height="254" as="geometry" />
        </mxCell>
        <mxCell id="J5BWZxYgXUkZilHQ0DRr-1" value="" style="ellipse;whiteSpace=wrap;html=1;aspect=fixed;fillColor=#000000;" vertex="1" parent="1">
          <mxGeometry x="40" y="130" width="20" height="20" as="geometry" />
        </mxCell>
        <mxCell id="J5BWZxYgXUkZilHQ0DRr-2" value="soumise" style="rounded=1;whiteSpace=wrap;html=1;" vertex="1" parent="1">
          <mxGeometry x="200" y="110" width="120" height="60" as="geometry" />
        </mxCell>
        <mxCell id="J5BWZxYgXUkZilHQ0DRr-3" value="validée" style="rounded=1;whiteSpace=wrap;html=1;" vertex="1" parent="1">
          <mxGeometry x="420" y="110" width="120" height="60" as="geometry" />
        </mxCell>
        <mxCell id="J5BWZxYgXUkZilHQ0DRr-4" value="publiée" style="rounded=1;whiteSpace=wrap;html=1;" vertex="1" parent="1">
          <mxGeometry x="420" y="240" width="120" height="60" as="geometry" />
        </mxCell>
        <mxCell id="J5BWZxYgXUkZilHQ0DRr-5" value="périmée" style="rounded=1;whiteSpace=wrap;html=1;" vertex="1" parent="1">
          <mxGeometry x="215" y="400" width="120" height="60" as="geometry" />
        </mxCell>
        <mxCell id="J5BWZxYgXUkZilHQ0DRr-6" value="&lt;font color=&quot;#00cc00&quot;&gt;invisible&lt;/font&gt;" style="rounded=1;whiteSpace=wrap;html=1;fillColor=#d5e8d4;strokeColor=#82b366;" vertex="1" parent="1">
          <mxGeometry x="405" y="400" width="120" height="60" as="geometry" />
        </mxCell>
        <mxCell id="J5BWZxYgXUkZilHQ0DRr-8" value="" style="endArrow=open;html=1;rounded=0;entryX=0;entryY=0.5;entryDx=0;entryDy=0;exitX=1;exitY=0.5;exitDx=0;exitDy=0;endFill=0;" edge="1" parent="1" source="J5BWZxYgXUkZilHQ0DRr-1" target="J5BWZxYgXUkZilHQ0DRr-2">
          <mxGeometry width="50" height="50" relative="1" as="geometry">
            <mxPoint x="-120" y="200" as="sourcePoint" />
            <mxPoint x="110" y="170" as="targetPoint" />
          </mxGeometry>
        </mxCell>
        <mxCell id="J5BWZxYgXUkZilHQ0DRr-9" value="" style="endArrow=open;html=1;rounded=0;entryX=0;entryY=0.5;entryDx=0;entryDy=0;exitX=1;exitY=0.5;exitDx=0;exitDy=0;endFill=0;" edge="1" parent="1" source="J5BWZxYgXUkZilHQ0DRr-2" target="J5BWZxYgXUkZilHQ0DRr-3">
          <mxGeometry width="50" height="50" relative="1" as="geometry">
            <mxPoint x="110" y="150" as="sourcePoint" />
            <mxPoint x="210" y="150" as="targetPoint" />
          </mxGeometry>
        </mxCell>
        <mxCell id="J5BWZxYgXUkZilHQ0DRr-10" value="valider une&lt;br&gt;annonce" style="text;html=1;align=center;verticalAlign=middle;resizable=0;points=[];autosize=1;strokeColor=none;fillColor=none;" vertex="1" parent="1">
          <mxGeometry x="330" y="90" width="80" height="40" as="geometry" />
        </mxCell>
        <mxCell id="J5BWZxYgXUkZilHQ0DRr-11" value="soumettre une&lt;br&gt;annonce de&lt;br&gt;vente d&#39;occasion" style="text;html=1;align=center;verticalAlign=middle;resizable=0;points=[];autosize=1;strokeColor=none;fillColor=none;" vertex="1" parent="1">
          <mxGeometry x="70" y="80" width="110" height="60" as="geometry" />
        </mxCell>
        <mxCell id="J5BWZxYgXUkZilHQ0DRr-12" value="&lt;font color=&quot;#00cc00&quot;&gt;active&lt;/font&gt;" style="rounded=1;whiteSpace=wrap;html=1;fillColor=#d5e8d4;strokeColor=#82b366;" vertex="1" parent="1">
          <mxGeometry x="495" y="66" width="65" height="34" as="geometry" />
        </mxCell>
        <mxCell id="J5BWZxYgXUkZilHQ0DRr-14" value="" style="endArrow=open;html=1;rounded=0;entryX=0.5;entryY=0;entryDx=0;entryDy=0;exitX=0.5;exitY=1;exitDx=0;exitDy=0;endFill=0;" edge="1" parent="1" source="J5BWZxYgXUkZilHQ0DRr-3" target="J5BWZxYgXUkZilHQ0DRr-4">
          <mxGeometry width="50" height="50" relative="1" as="geometry">
            <mxPoint x="330" y="150" as="sourcePoint" />
            <mxPoint x="430" y="150" as="targetPoint" />
          </mxGeometry>
        </mxCell>
        <mxCell id="J5BWZxYgXUkZilHQ0DRr-15" value="" style="endArrow=open;html=1;rounded=0;entryX=0.5;entryY=0;entryDx=0;entryDy=0;exitX=0.25;exitY=1;exitDx=0;exitDy=0;endFill=0;" edge="1" parent="1" source="J5BWZxYgXUkZilHQ0DRr-7" target="J5BWZxYgXUkZilHQ0DRr-5">
          <mxGeometry width="50" height="50" relative="1" as="geometry">
            <mxPoint x="490" y="180" as="sourcePoint" />
            <mxPoint x="490" y="250" as="targetPoint" />
          </mxGeometry>
        </mxCell>
        <mxCell id="J5BWZxYgXUkZilHQ0DRr-16" value="" style="endArrow=open;html=1;rounded=0;entryX=0.5;entryY=0;entryDx=0;entryDy=0;exitX=0.75;exitY=1;exitDx=0;exitDy=0;endFill=0;strokeColor=#00CC00;" edge="1" parent="1" source="J5BWZxYgXUkZilHQ0DRr-7" target="J5BWZxYgXUkZilHQ0DRr-6">
          <mxGeometry width="50" height="50" relative="1" as="geometry">
            <mxPoint x="285" y="330" as="sourcePoint" />
            <mxPoint x="270" y="390" as="targetPoint" />
          </mxGeometry>
        </mxCell>
        <mxCell id="J5BWZxYgXUkZilHQ0DRr-17" value="&lt;font color=&quot;#00cc00&quot;&gt;rendre une&lt;br&gt;annonce&lt;br&gt;invisible&lt;/font&gt;" style="text;html=1;align=center;verticalAlign=middle;resizable=0;points=[];autosize=1;strokeColor=none;fillColor=none;" vertex="1" parent="1">
          <mxGeometry x="470" y="330" width="80" height="60" as="geometry" />
        </mxCell>
        <mxCell id="J5BWZxYgXUkZilHQ0DRr-18" value="&lt;font color=&quot;#00cc00&quot;&gt;durée de&lt;br&gt;publication&lt;br&gt;dépasée&lt;/font&gt;" style="text;html=1;align=center;verticalAlign=middle;resizable=0;points=[];autosize=1;strokeColor=none;fillColor=none;" vertex="1" parent="1">
          <mxGeometry x="190" y="330" width="80" height="60" as="geometry" />
        </mxCell>
        <mxCell id="J5BWZxYgXUkZilHQ0DRr-19" value="&lt;font color=&quot;#ff0000&quot;&gt;&lt;strike&gt;[ &amp;gt; 6 mois ]&lt;/strike&gt;&lt;/font&gt;" style="text;html=1;align=center;verticalAlign=middle;resizable=0;points=[];autosize=1;strokeColor=none;fillColor=none;" vertex="1" parent="1">
          <mxGeometry x="280" y="345" width="80" height="30" as="geometry" />
        </mxCell>
        <mxCell id="J5BWZxYgXUkZilHQ0DRr-20" value="&lt;font color=&quot;#ff0000&quot;&gt;&lt;strike&gt;[ &amp;lt;= 6 mois ]&lt;/strike&gt;&lt;/font&gt;" style="text;html=1;align=center;verticalAlign=middle;resizable=0;points=[];autosize=1;strokeColor=none;fillColor=none;" vertex="1" parent="1">
          <mxGeometry x="335" y="230" width="90" height="30" as="geometry" />
        </mxCell>
        <mxCell id="J5BWZxYgXUkZilHQ0DRr-21" value="" style="endArrow=open;html=1;rounded=0;exitX=0;exitY=0.25;exitDx=0;exitDy=0;endFill=0;entryX=0;entryY=0.75;entryDx=0;entryDy=0;strokeColor=#FF0000;" edge="1" parent="1" source="J5BWZxYgXUkZilHQ0DRr-4" target="J5BWZxYgXUkZilHQ0DRr-4">
          <mxGeometry width="50" height="50" relative="1" as="geometry">
            <mxPoint x="490" y="180" as="sourcePoint" />
            <mxPoint x="640" y="310" as="targetPoint" />
            <Array as="points">
              <mxPoint x="390" y="255" />
              <mxPoint x="390" y="285" />
            </Array>
          </mxGeometry>
        </mxCell>
        <mxCell id="J5BWZxYgXUkZilHQ0DRr-22" value="" style="endArrow=open;html=1;rounded=0;exitX=0.5;exitY=1;exitDx=0;exitDy=0;endFill=0;entryX=0;entryY=0;entryDx=0;entryDy=0;" edge="1" parent="1" source="J5BWZxYgXUkZilHQ0DRr-5" target="J5BWZxYgXUkZilHQ0DRr-26">
          <mxGeometry width="50" height="50" relative="1" as="geometry">
            <mxPoint x="285" y="330" as="sourcePoint" />
            <mxPoint x="330" y="510" as="targetPoint" />
          </mxGeometry>
        </mxCell>
        <mxCell id="J5BWZxYgXUkZilHQ0DRr-24" value="" style="endArrow=open;html=1;rounded=0;exitX=0.5;exitY=1;exitDx=0;exitDy=0;endFill=0;strokeColor=#00CC00;entryX=1;entryY=0;entryDx=0;entryDy=0;" edge="1" parent="1" source="J5BWZxYgXUkZilHQ0DRr-6" target="J5BWZxYgXUkZilHQ0DRr-26">
          <mxGeometry width="50" height="50" relative="1" as="geometry">
            <mxPoint x="475" y="330" as="sourcePoint" />
            <mxPoint x="410" y="510" as="targetPoint" />
          </mxGeometry>
        </mxCell>
        <mxCell id="J5BWZxYgXUkZilHQ0DRr-25" value="" style="ellipse;whiteSpace=wrap;html=1;aspect=fixed;fillColor=#000000;" vertex="1" parent="1">
          <mxGeometry x="360" y="520" width="20" height="20" as="geometry" />
        </mxCell>
        <mxCell id="J5BWZxYgXUkZilHQ0DRr-26" value="" style="ellipse;whiteSpace=wrap;html=1;aspect=fixed;fillColor=none;" vertex="1" parent="1">
          <mxGeometry x="355" y="515" width="30" height="30" as="geometry" />
        </mxCell>
      </root>
    </mxGraphModel>
  </diagram>
</mxfile>
